<?xml version="1.0" encoding="UTF-8"?>
<svg id="Layer_2" data-name="Layer 2" xmlns="http://www.w3.org/2000/svg" viewBox="0 0 271.76 261.43">
  <defs>
    <style>
      .cls-1 {
        fill: none;
        stroke: #0f443f;
        stroke-miterlimit: 10;
        stroke-width: 8px;
      }

      .cls-2 {
        fill: #0f443f;
      }
    </style>
  </defs>
  <g id="Layer_1-2" data-name="Layer 1">
    <g>
      <g>
        <path class="cls-2" d="M244.81,131.1c1,1.21-4.86,10.14-5.89,11.68,3.68-1.47,7.09-3.63,10.96-4.68,7.09-1.92,14.65-1.53,21.81-.23.64.69-3.45,4.63-4.15,5.26-8.37,7.62-18.56,11.42-29.95,10.66-1.84-.12-6.05-1.59-6.72-1.51-.73.09-9.06,8.38-11.53,9.05-2.02.55-4.1-1.39-5.66-2.52,8.2-4.7,16.08-10.17,22.15-17.51,1.4-1.7,6.62-10.11,7.11-10.51.73-.6,1.61-.35,1.88.31Z"/>
        <path class="cls-2" d="M232.03,103.35c6.57,9.41,9.73,20.56,4.9,31.55-.98.76-4.57-4.68-5.08-5.58-3.99-7.04-4.64-17.74-1.07-25.09.31-.64.63-1.49,1.24-.88Z"/>
        <g>
          <path class="cls-2" d="M112.54,55.29c12.66,8.31,21.99,19.72,29.56,32.64,2.8,4.78,5.28,9.75,7.72,14.73.81,1.66,1.81,2.24,3.51,1.91,4.41-.87,8.84-1.67,13.22-2.64,2.38-.53,2.85-1.53,2.57-4.01-1.76-15.42-8.29-28.99-16.39-41.92-8.77-14-19.55-26.09-33.82-34.76-1.57-.95-3.26-1.72-5.35-2.81,0,3.04.19,5.33-.03,7.57-.83,8.37-1.75,16.73-2.76,25.07-.23,1.89.05,3.09,1.77,4.22Z"/>
          <path class="cls-2" d="M233.48,135.09c-3.15-5.55-7.5-9.62-13.87-11.26-.72-.19-1.41-1.03-1.85-1.73-1.63-2.58-2.96-5.38-4.76-7.84-4.87-6.66-11.75-9.68-19.81-10.31-7.97-.62-15.6,1.01-22.99,3.79-7.2,2.71-14.3,5.68-21.43,8.56-3.26,1.32-3.33,1.3-4.33-1.97-7.91-26.02-24.22-45.47-47.15-59.51-19.74-12.09-41.3-17.8-64.49-17.31-7.7.16-15.4.02-23.1.02-1.29,0-2.58,0-3.87,0-.08.21-.17.41-.25.62,1.86,2.5,3.66,5.04,5.58,7.48,4.15,5.28,8.36,10.52,12.56,15.76,9.18,11.45,14.88,24.58,18.84,38.6,2.3,8.16,4.61,16.32,7.3,24.35,5.31,15.81,14.38,29.32,26.07,41.13,1.74,1.76,3.51,3.48,5.48,5.43-17.87,15.87-38.9,20.82-62.47,19.07,8.56,15.82,20.56,28.24,33.86,39.88.37-.63.69-1.09.93-1.59,1.98-4.13,3.92-8.28,5.89-12.41,10.63,7.77,22.39,12.91,35.19,15.46,23.43,4.67,45.86,2.01,66.81-9.92,14.46-8.24,24.79-20.22,30.76-35.79,3.41-8.89,6.43-17.92,9.82-26.81,1.62-4.26,3.54-8.42,5.59-12.49,3.75-7.44,10.74-11.04,19.06-10.06,1.68.2,2.46.36,4.15.53.53.05,2.12.31,3.06.36,0-.71-.3-1.54-.59-2.06ZM199.92,125.82c-1.85,0-3.34-1.5-3.34-3.34s1.5-3.34,3.34-3.34,3.34,1.5,3.34,3.34-1.5,3.34-3.34,3.34Z"/>
        </g>
      </g>
      <circle class="cls-1" cx="130.72" cy="130.72" r="126.72"/>
    </g>
  </g>
</svg>